<svg xmlns="http://www.w3.org/2000/svg" width="152.702" height="166.326" viewBox="0 0 152.702 166.326"><defs><style>.a{fill:#fff;}</style></defs><g transform="translate(-1709.662 -179.676)"><path class="a" d="M54.5,109A54.514,54.514,0,0,1,33.286,4.283,54.514,54.514,0,0,1,75.714,104.717,54.157,54.157,0,0,1,54.5,109Zm0-93A38.5,38.5,0,1,0,93,54.5,38.544,38.544,0,0,0,54.5,16Z" transform="translate(1731.601 179.676)"/><path class="a" d="M65.121,73.326H42.662a76.411,76.411,0,0,1,152.7,0H172.905a53.98,53.98,0,0,0-107.784,0Z" transform="translate(1667 272.676)"/></g></svg>